<?xml version="1.0" encoding="UTF-8" standalone="no"?>
<!-- Created with Inkscape (http://www.inkscape.org/) -->

<svg
   version="1.1"
   id="svg1"
   width="951"
   height="513"
   viewBox="0 0 951 513"
   sodipodi:docname="rsonquery-rq-logo.pdf"
   xml:space="preserve"
   inkscape:export-filename="D:\Things\rsonpath-branding\rsonquery-rq-logo.svg"
   inkscape:export-xdpi="96"
   inkscape:export-ydpi="96"
   xmlns:inkscape="http://www.inkscape.org/namespaces/inkscape"
   xmlns:sodipodi="http://sodipodi.sourceforge.net/DTD/sodipodi-0.dtd"
   xmlns="http://www.w3.org/2000/svg"
   xmlns:svg="http://www.w3.org/2000/svg"><defs
     id="defs1" /><sodipodi:namedview
     id="namedview1"
     pagecolor="#ffffff"
     bordercolor="#000000"
     borderopacity="0.25"
     inkscape:showpageshadow="2"
     inkscape:pageopacity="0.0"
     inkscape:pagecheckerboard="0"
     inkscape:deskcolor="#d1d1d1"><inkscape:page
       x="0"
       y="0"
       width="951"
       height="513"
       id="page2"
       margin="0"
       bleed="0" /></sodipodi:namedview><path
     id="path2"
     d="M 77.302665,0.5 H 873.69731 c 42.41733,0 76.80267,34.385332 76.80267,76.802664 V 435.69732 c 0,42.41733 -34.38534,76.80267 -76.80267,76.80267 H 77.302665 C 34.885332,512.49999 0.5,478.11465 0.5,435.69732 V 77.302664 C 0.5,34.885332 34.885332,0.5 77.302665,0.5 Z"
     style="display:inline;fill:#000000;fill-opacity:1;fill-rule:nonzero;stroke:#000000;stroke-width:1;stroke-linecap:butt;stroke-linejoin:miter;stroke-miterlimit:4;stroke-dasharray:none;stroke-opacity:1"
     inkscape:label="background" /><g
     inkscape:groupmode="layer"
     id="layer3"
     inkscape:label="main"
     transform="translate(56.006967)"><g
       inkscape:groupmode="layer"
       id="layer4"
       inkscape:label="logo"
       transform="translate(-41.192967)"><path
         d="m 134.04096,65.287638 v 25.993846 q -14.37538,0 -26.19077,2.953847 -11.618461,2.756923 -18.116922,9.649229 -6.498462,6.89231 -5.316924,18.90462 l 8.27077,80.73846 q 2.56,24.81231 -7.089231,37.02154 -9.452308,12.20923 -29.735385,15.95077 20.676923,3.74153 30.129231,15.36 9.452308,11.42153 6.695385,37.6123 l -8.27077,80.73847 q -1.181538,12.20923 5.316924,19.10153 6.498461,6.89231 18.116922,9.64923 11.61846,2.75693 26.19077,2.75693 v 25.99384 q -22.05538,0 -41.353846,-5.31692 Q 73.388652,437.07841 62.36096,423.68764 51.333268,410.49379 54.090191,386.27225 l 7.876923,-74.83077 q 1.575384,-13.39076 -2.56,-22.64615 -3.938462,-9.45231 -17.329231,-14.17846 -13.193846,-4.92308 -39.5815385,-4.92308 V 243.3061 q 26.3876925,0 39.5815385,-4.72615 13.390769,-4.72616 17.329231,-13.98154 4.135384,-9.25539 2.56,-22.64616 l -7.876923,-75.22461 q -2.56,-24.22154 8.270769,-37.415386 11.027692,-13.39077 30.326154,-18.707693 19.298466,-5.316923 41.353846,-5.316923 z"
         id="text15"
         style="font-size:384px;line-height:2.9;font-family:'Fira Code';-inkscape-font-specification:'Fira Code';text-align:center;word-spacing:0px;text-anchor:middle;fill:#e33c26"
         inkscape:label="left bracket"
         transform="translate(41.192967)"
         aria-label="{" /><path
         d="m 334.06657,65.287638 q 22.05538,0 41.35384,5.316923 19.29847,5.316923 30.32616,18.707693 11.02769,13.193846 8.27077,37.415386 l -7.87693,75.22461 q -2.16615,20.08616 10.43693,30.72 12.60307,10.63385 49.03384,10.63385 v 26.38769 q -36.23384,0 -49.03384,10.83077 -12.60308,10.83077 -10.43693,30.91692 l 7.87693,74.83077 q 2.56,24.22154 -8.4677,37.41539 -10.83076,13.39077 -30.12923,18.70769 -19.29846,5.31692 -41.35384,5.31692 v -25.99384 q 14.37538,0 25.99384,-2.75693 11.81539,-2.75692 18.31385,-9.64923 6.49846,-6.8923 5.31692,-19.10153 l -8.27077,-80.73847 q -2.75692,-26.19077 7.08923,-37.6123 10.04308,-11.42154 34.0677,-14.96616 -23.23693,-3.93846 -33.47693,-16.14769 -10.24,-12.40615 -7.68,-37.21846 l 8.27077,-80.73846 q 1.18154,-12.01231 -5.31692,-18.90462 -6.49846,-6.892306 -18.11692,-9.649229 -11.61846,-2.953847 -26.19077,-2.953847 z"
         id="text16"
         style="font-size:384px;line-height:2.9;font-family:'Fira Code';-inkscape-font-specification:'Fira Code';text-align:center;word-spacing:0px;text-anchor:middle;fill:#e33c26"
         inkscape:label="right bracket"
         transform="translate(41.192967)"
         aria-label="}" /><g
         inkscape:label="fire"
         id="layer1"
         transform="matrix(4.4251835,0,0,4.4251835,-132.89794,-103.15899)"><path
           style="fill:#ff6723;fill-opacity:1;stroke-width:0.264583"
           d="m 90.031415,110.68718 c -2.96298,-0.29834 -5.46332,-0.97036 -7.87135,-2.1156 -6.28049,-2.98694 -11.15122,-8.70306 -13.44905,-15.78335 -1.41144,-4.34907 -1.73845,-8.71965 -1.00689,-13.45746 0.51663,-3.34583 1.45794,-6.68267 2.75146,-9.75355 0.70493,-1.67357 2.34651,-4.82173 3.61592,-6.934511 1.12021,-1.864458 3.44828,-5.235067 3.72144,-5.387928 0.2672,-0.149534 0.5082,0.469392 0.95935,2.46375 0.74884,3.310279 1.00728,4.172371 1.26507,4.219819 0.23067,0.04246 2.12545,-3.107585 8.58594,-14.273985 1.5681,-2.710326 2.94735,-5.027653 3.06501,-5.149612 0.11767,-0.121963 0.33241,-0.282186 0.4772,-0.356055 0.35035,-0.178734 0.98937,-0.228357 1.29519,-0.100576 0.43708,0.18262 1.91412,1.369147 4.26363,3.425012 4.190695,3.666945 7.949355,7.80914 10.892425,12.003887 2.56412,3.654634 4.33136,6.864799 5.83324,10.595989 1.98339,4.92743 2.86745,9.15737 2.99725,14.34099 0.14832,5.92322 -1.33992,10.93753 -4.66092,15.70395 -3.93043,5.6411 -10.30545,9.54529 -17.079445,10.45979 -1.31122,0.17702 -4.35372,0.23051 -5.65547,0.0994 z"
           id="path12" /><path
           style="fill:#ffb02e;fill-opacity:1;stroke-width:0.264583"
           d="m 90.52759,107.27691 c -2.17125,-0.22155 -4.22681,-0.82108 -6.11849,-1.78453 -1.77498,-0.90401 -3.064658,-1.83848 -4.470688,-3.23933 -1.48353,-1.47809 -2.49345,-2.84914 -3.36355,-4.56636 -1.88441,-3.719017 -2.45043,-7.453007 -1.75368,-11.568657 0.65121,-3.84656 2.06983,-7.33707 4.49188,-11.05223 2.36259,-3.62396 5.951438,-7.4775 9.924978,-10.656978 0.79773,-0.638318 2.88339,-2.157503 3.04949,-2.221244 0.049,-0.01881 0.49904,0.250556 1.00011,0.598565 2.91349,2.023491 5.99735,4.808967 8.68747,7.846897 2.32888,2.62999 4.43853,5.83907 5.79163,8.80989 1.79947,3.95087 2.57746,7.58057 2.45006,11.43074 -0.0434,1.31163 -0.14795,2.13623 -0.41092,3.24114 -1.24963,5.250587 -5.18957,9.745737 -10.40404,11.870187 -2.32841,0.94862 -4.05382,1.2908 -6.69144,1.32702 -0.89131,0.0122 -1.87358,-0.004 -2.18281,-0.0351 z"
           id="path11" /></g></g><g
       inkscape:groupmode="layer"
       id="layer5"
       inkscape:label="rq"
       transform="translate(-41.192967)"><path
         d="m 788.87088,151.7516 q 18.70769,0 32.88615,6.89231 14.37539,6.89231 25.00923,20.08615 l 2.75693,-22.64615 h 28.16 v 290.85538 l -33.08308,-4.13538 V 337.25314 q -11.42154,15.95077 -26.38769,23.43385 -14.96616,7.28615 -31.90154,7.28615 -27.96308,0 -44.70154,-13.39077 -16.73846,-13.39077 -24.22154,-37.61231 -7.48308,-24.41846 -7.48308,-56.91077 0,-31.11384 9.05847,-55.5323 9.05846,-24.61539 26.58461,-38.59693 17.72308,-14.17846 43.32308,-14.17846 z m 8.27077,26.58462 q -51.79077,0 -51.79077,81.72307 0,80.34462 47.85231,80.34462 17.1323,0 29.9323,-9.45231 12.99693,-9.64923 21.46462,-22.44923 V 204.92083 q -8.07385,-12.60308 -20.48,-19.49538 -12.40616,-7.08923 -26.97846,-7.08923 z"
         id="text17"
         style="font-size:384px;line-height:0;font-family:'Fira Code';-inkscape-font-specification:'Fira Code';text-align:center;word-spacing:0px;text-anchor:middle;fill:#e33c26"
         inkscape:label="q"
         aria-label="q" /><path
         d="m 474.61254,363.4649 v -25.40307 h 32.29538 V 181.50798 H 474.61254 V 156.1049 h 57.50154 l 6.10461,49.03385 q 12.01231,-25.6 29.14462,-39.58154 17.1323,-13.98154 45.2923,-13.98154 8.66462,0 15.36,1.37847 6.89231,1.18153 13.98154,3.15076 l -4.72615,70.10462 h -27.17539 v -44.11077 q -0.78769,0 -1.7723,0 -47.65539,0 -68.33231,68.13539 v 87.82769 h 42.14154 v 25.40307 z"
         id="text18"
         style="font-size:384px;line-height:0;font-family:'Fira Code';-inkscape-font-specification:'Fira Code';text-align:center;word-spacing:0px;text-anchor:middle;fill:#e33c26"
         inkscape:label="r"
         transform="translate(41.192967)"
         aria-label="r" /></g></g></svg>
